<?xml version="1.0" encoding="utf-8"?>
<!-- Generator: Adobe Illustrator 21.0.0, SVG Export Plug-In . SVG Version: 6.00 Build 0)  -->
<svg version="1.1" id="Layer_1" xmlns="http://www.w3.org/2000/svg" xmlns:xlink="http://www.w3.org/1999/xlink" x="0px" y="0px"
	 viewBox="0 0 87.6 100" style="enable-background:new 0 0 87.6 100;" xml:space="preserve">
<style type="text/css">
	.st0{fill:#ED2124;}
</style>
<g>
	<path class="st0" d="M38.2,49.6l0,19.5c0,0.9,0,9.5-11.9,3.5c-11.9-6-5.2-12.8-4.4-13c-7-2.2-13.4-8.2-18.5-14.3
		c-5,11,4,22.7,4.4,24.4c1.1-1.2,2.7-1,3.7-0.8c12.1,18.5,28,16.3,32.3,21.5c4.3-5.2,20.2-3,32.3-21.5c1-0.2,2.6-0.3,3.7,0.8
		c0.4-1.7,9.4-13.4,4.4-24.4c-5.1,6.2-11.5,12.2-18.5,14.3c0.8,0.2,7.5,7-4.4,13c-11.9,6-10.9-2.7-10.9-3.5l0-19.5"/>
	<g>
		<path class="st0" d="M38.2,10.8c3.4-0.5,8.2-1,15.2-1c6.7,0,11.5,1.2,14.7,3.7c3.2,2.3,5.3,6.4,5.3,11.1c0,4.7-1.6,8.7-4.5,11.4
			c-3.7,3.3-9.1,4.8-15.4,4.8c-1.2,0-2.3-0.1-3-0.1v15.6H38.2V10.8z M50.4,31.2c0.7,0.1,1.5,0.1,2.8,0.1c4.8,0,7.8-2.5,7.8-6.4
			c0-3.4-2.3-5.8-7-5.8c-1.8,0-3,0.1-3.6,0.3V31.2z"/>
	</g>
</g>
</svg>
